<?xml version="1.0" encoding="utf-8"?>
<!-- Generator: Adobe Illustrator 24.0.2, SVG Export Plug-In . SVG Version: 6.00 Build 0)  -->
<svg version="1.1" id="Layer_1" xmlns="http://www.w3.org/2000/svg" xmlns:xlink="http://www.w3.org/1999/xlink" x="0px" y="0px"
	 viewBox="0 0 360 288" style="enable-background:new 0 0 360 288;" xml:space="preserve">
<style type="text/css">
	.st0{display:none;fill:#FFFFFF;}
	.st1{opacity:0.4;}
	.st2{fill:#FFFFFF;}
	.st3{fill:#FAFDF7;}
	.st4{fill:#F5FCEF;}
	.st5{fill:#EFFAE7;}
	.st6{fill:#EAF8DF;}
	.st7{fill:#E5F6D7;}
	.st8{fill:#E0F5D0;}
	.st9{fill:#DAF3C8;}
	.st10{fill:#D5F1C0;}
	.st11{fill:#D0EFB8;}
	.st12{fill:#CBEEB0;}
	.st13{fill:#C6ECA8;}
	.st14{fill:#C0EAA0;}
	.st15{fill:#BBE898;}
	.st16{fill:#B6E790;}
	.st17{fill:#B1E588;}
	.st18{fill:#ABE381;}
	.st19{fill:#A6E179;}
	.st20{fill:#A1E071;}
	.st21{fill:#9CDE69;}
	.st22{fill:#96DC61;}
	.st23{fill:#91DA59;}
	.st24{fill:#8CD951;}
	.st25{fill:#87D749;}
	.st26{fill:#82D541;}
	.st27{fill:#7CD339;}
	.st28{fill:#77D232;}
	.st29{fill:#72D02A;}
	.st30{fill:#6DCE22;}
	.st31{fill:#67CC1A;}
	.st32{fill:#62CB12;}
	.st33{fill:#5DC90A;}
</style>
<rect y="0" class="st0" width="360" height="288"/>
<g>
	<g class="st1">
		<circle class="st2" cx="160.13" cy="169.29" r="47.52"/>
		
			<ellipse transform="matrix(0.0586 -0.9983 0.9983 0.0586 -16.4718 319.2704)" class="st3" cx="161.05" cy="168.37" rx="47.52" ry="47.52"/>
		<circle class="st4" cx="161.97" cy="167.45" r="47.52"/>
		
			<ellipse transform="matrix(0.7071 -0.7071 0.7071 0.7071 -70.0374 163.9581)" class="st5" cx="162.9" cy="166.52" rx="47.52" ry="47.52"/>
		
			<ellipse transform="matrix(0.7071 -0.7071 0.7071 0.7071 -69.1138 164.3407)" class="st6" cx="163.82" cy="165.6" rx="47.52" ry="47.52"/>
		
			<ellipse transform="matrix(0.5219 -0.853 0.853 0.5219 -61.7057 219.2536)" class="st7" cx="164.74" cy="164.67" rx="47.52" ry="47.52"/>
		
			<ellipse transform="matrix(0.7071 -0.7071 0.7071 0.7071 -67.2666 165.1058)" class="st8" cx="165.67" cy="163.75" rx="47.52" ry="47.52"/>
		
			<ellipse transform="matrix(0.7071 -0.7071 0.7071 0.7071 -66.343 165.4884)" class="st9" cx="166.59" cy="162.83" rx="47.52" ry="47.52"/>
		
			<ellipse transform="matrix(0.2252 -0.9743 0.9743 0.2252 -27.9503 288.6612)" class="st10" cx="167.51" cy="161.9" rx="47.52" ry="47.52"/>
		
			<ellipse transform="matrix(0.2252 -0.9743 0.9743 0.2252 -26.3348 288.8454)" class="st11" cx="168.44" cy="160.98" rx="47.52" ry="47.52"/>
		
			<ellipse transform="matrix(0.2119 -0.9773 0.9773 0.2119 -22.9415 291.6656)" class="st12" cx="169.36" cy="160.06" rx="47.52" ry="47.52"/>
		
			<ellipse transform="matrix(0.1739 -0.9848 0.9848 0.1739 -16.0287 299.1596)" class="st13" cx="170.29" cy="159.13" rx="47.52" ry="47.52"/>
		
			<ellipse transform="matrix(0.2252 -0.9743 0.9743 0.2252 -21.4882 289.3981)" class="st14" cx="171.21" cy="158.21" rx="47.52" ry="47.52"/>
		
			<ellipse transform="matrix(0.2252 -0.9743 0.9743 0.2252 -19.8727 289.5824)" class="st15" cx="172.13" cy="157.29" rx="47.52" ry="47.52"/>
		
			<ellipse transform="matrix(0.7071 -0.7071 0.7071 0.7071 -59.8778 168.1664)" class="st16" cx="173.06" cy="156.36" rx="47.52" ry="47.52"/>
		
			<ellipse transform="matrix(0.8953 -0.4455 0.4455 0.8953 -51.032 93.796)" class="st17" cx="173.98" cy="155.44" rx="47.52" ry="47.52"/>
		
			<ellipse transform="matrix(0.7071 -0.7071 0.7071 0.7071 -58.0306 168.9315)" class="st18" cx="174.9" cy="154.51" rx="47.52" ry="47.52"/>
		
			<ellipse transform="matrix(0.7071 -0.7071 0.7071 0.7071 -57.107 169.3141)" class="st19" cx="175.83" cy="153.59" rx="47.52" ry="47.52"/>
		
			<ellipse transform="matrix(0.7071 -0.7071 0.7071 0.7071 -56.1834 169.6967)" class="st20" cx="176.75" cy="152.67" rx="47.52" ry="47.52"/>
		
			<ellipse transform="matrix(0.7071 -0.7071 0.7071 0.7071 -55.2598 170.0792)" class="st21" cx="177.67" cy="151.74" rx="47.52" ry="47.52"/>
		
			<ellipse transform="matrix(0.9731 -0.2302 0.2302 0.9731 -29.924 45.1669)" class="st22" cx="178.6" cy="150.82" rx="47.52" ry="47.52"/>
		
			<ellipse transform="matrix(0.9283 -0.3718 0.3718 0.9283 -42.8646 77.4987)" class="st23" cx="179.52" cy="149.9" rx="47.52" ry="47.52"/>
		
			<ellipse transform="matrix(0.9283 -0.3718 0.3718 0.9283 -42.4549 77.7759)" class="st24" cx="180.44" cy="148.97" rx="47.52" ry="47.52"/>
		
			<ellipse transform="matrix(0.9283 -0.3718 0.3718 0.9283 -42.0453 78.0531)" class="st25" cx="181.37" cy="148.05" rx="47.52" ry="47.52"/>
		
			<ellipse transform="matrix(0.2345 -0.9721 0.9721 0.2345 -3.4812 289.8312)" class="st26" cx="182.29" cy="147.13" rx="47.52" ry="47.52"/>
		
			<ellipse transform="matrix(0.2621 -0.965 0.965 0.2621 -5.9018 284.6861)" class="st27" cx="183.22" cy="146.2" rx="47.52" ry="47.52"/>
		<circle class="st28" cx="184.14" cy="145.28" r="47.52"/>
		<circle class="st29" cx="185.06" cy="144.36" r="47.52"/>
		<circle class="st30" cx="185.99" cy="143.43" r="47.52"/>
		<circle class="st31" cx="186.91" cy="142.51" r="47.52"/>
		
			<ellipse transform="matrix(0.7071 -0.7071 0.7071 0.7071 -45.1001 174.2875)" class="st32" cx="187.83" cy="141.58" rx="47.52" ry="47.52"/>
		
			<ellipse transform="matrix(0.7071 -0.7071 0.7071 0.7071 -44.1765 174.6701)" class="st33" cx="188.76" cy="140.66" rx="47.52" ry="47.52"/>
	</g>
	<g>
		
			<ellipse transform="matrix(0.7071 -0.7071 0.7071 0.7071 -44.1765 174.6701)" class="st33" cx="188.76" cy="140.66" rx="47.52" ry="47.52"/>
		<path class="st2" d="M188.76,189.18c-26.75,0-48.52-21.76-48.52-48.52c0-26.75,21.76-48.52,48.52-48.52
			c26.75,0,48.52,21.76,48.52,48.52C237.27,167.41,215.51,189.18,188.76,189.18z M188.76,94.14c-25.65,0-46.52,20.87-46.52,46.52
			c0,25.65,20.87,46.52,46.52,46.52c25.65,0,46.52-20.87,46.52-46.52C235.27,115.01,214.41,94.14,188.76,94.14z"/>
	</g>
	<g>
		<path d="M183.88,193.8c-22.63,0-42.48-16.04-47.2-38.14c-0.09-0.41,0.17-0.8,0.58-0.89c0.4-0.09,0.8,0.17,0.89,0.58
			c4.57,21.41,23.81,36.95,45.74,36.95c4.95,0,9.83-0.77,14.49-2.29c0.4-0.13,0.82,0.09,0.95,0.48c0.13,0.39-0.09,0.82-0.48,0.95
			C194.03,193.01,188.99,193.8,183.88,193.8z M215.7,181.58c-0.2,0-0.41-0.08-0.56-0.25c-0.28-0.31-0.25-0.78,0.05-1.06
			c9.82-8.86,15.45-21.52,15.45-34.74l0-0.19c0-0.41,0.33-0.75,0.74-0.76c0,0,0,0,0.01,0c0.41,0,0.75,0.33,0.75,0.74l0,0.2
			c0,13.64-5.81,26.71-15.95,35.85C216.06,181.51,215.88,181.58,215.7,181.58z M136.37,146.33c-0.41,0-0.75-0.29-0.75-0.7v-0.1
			c0-13.6,5.79-26.65,15.88-35.78c0.31-0.28,0.78-0.25,1.06,0.05c0.28,0.31,0.25,0.78-0.05,1.06c-9.78,8.85-15.38,21.49-15.38,34.67
			C137.12,145.95,136.78,146.33,136.37,146.33z M230.33,136.22c-0.35,0-0.66-0.24-0.73-0.59c-4.61-21.36-23.83-36.86-45.71-36.86
			c-4.99,0-9.89,0.78-14.58,2.32c-0.39,0.13-0.82-0.09-0.95-0.48c-0.13-0.39,0.09-0.82,0.48-0.95c4.84-1.59,9.91-2.39,15.05-2.39
			c22.58,0,42.43,16,47.18,38.04c0.09,0.4-0.17,0.8-0.57,0.89C230.44,136.21,230.38,136.22,230.33,136.22z"/>
	</g>
	<g>
		<g>
			<polygon class="st2" points="178.84,166.34 158.59,146.09 165.88,138.81 178.84,151.77 211.57,119.03 218.86,126.32 			"/>
			<path class="st2" d="M178.84,168.07l-21.97-21.97l9.01-9.01l12.96,12.96l32.74-32.74l9.01,9.01L178.84,168.07z M160.32,146.09
				l18.52,18.52l38.29-38.29l-5.56-5.56l-32.74,32.74l-12.96-12.96L160.32,146.09z"/>
		</g>
	</g>
</g>
</svg>
